<svg width="40" height="40" viewBox="0 0 40 40" fill="none" xmlns="http://www.w3.org/2000/svg">
<path d="M10.75 18H3.25C2.55964 18 2 18.5596 2 19.25C2 19.9404 2.55964 20.5 3.25 20.5H10.75C11.4404 20.5 12 19.9404 12 19.25C12 18.5596 11.4404 18 10.75 18Z" fill="#00FF00"/>
<path d="M10.75 13H5.25C4.55964 13 4 13.5596 4 14.25C4 14.9404 4.55964 15.5 5.25 15.5H10.75C11.4404 15.5 12 14.9404 12 14.25C12 13.5596 11.4404 13 10.75 13Z" fill="#00FF00"/>
<path d="M10.75 23H5.25C4.55964 23 4 23.5596 4 24.25C4 24.9404 4.55964 25.5 5.25 25.5H10.75C11.4404 25.5 12 24.9404 12 24.25C12 23.5596 11.4404 23 10.75 23Z" fill="#00FF00"/>
<path d="M20 25.5C23.3137 25.5 26 22.8137 26 19.5C26 16.1863 23.3137 13.5 20 13.5C16.6863 13.5 14 16.1863 14 19.5C14 22.8137 16.6863 25.5 20 25.5Z" stroke="#00FF00" stroke-width="2.5"/>
<path d="M36.75 18H29.25C28.5596 18 28 18.5596 28 19.25C28 19.9404 28.5596 20.5 29.25 20.5H36.75C37.4404 20.5 38 19.9404 38 19.25C38 18.5596 37.4404 18 36.75 18Z" fill="#00FF00"/>
<path d="M34.75 13H29.25C28.5596 13 28 13.5596 28 14.25C28 14.9404 28.5596 15.5 29.25 15.5H34.75C35.4404 15.5 36 14.9404 36 14.25C36 13.5596 35.4404 13 34.75 13Z" fill="#00FF00"/>
<path d="M34.75 23H29.25C28.5596 23 28 23.5596 28 24.25C28 24.9404 28.5596 25.5 29.25 25.5H34.75C35.4404 25.5 36 24.9404 36 24.25C36 23.5596 35.4404 23 34.75 23Z" fill="#00FF00"/>
</svg>
